<svg version="1.2" xmlns="http://www.w3.org/2000/svg" viewBox="0 0 39 38" width="39" height="38"><defs><filter x="-50%" y="-50%" width="200%" height="200%" id="f1" ><feDropShadow dx="0" dy="0" stdDeviation="0.4166666666666667" flood-color="#000000" flood-opacity=".3"/></filter></defs><style>.a{filter:url(#f1);fill:#fff;stroke:#fff;stroke-width:1.8}</style><path fill-rule="evenodd" class="a" d="m19.4 1.5c9.6 0 17.5 7.9 17.5 17.5 0 9.7-7.9 17.5-17.5 17.5-9.7 0-17.5-7.8-17.5-17.5 0-9.6 7.8-17.5 17.5-17.5zm10.7 17.4c0-5.8-4.7-10.5-10.5-10.5-5.8 0-10.5 4.7-10.5 10.5h-2.1l3.5 4.2 3.5-4.2h-2.1c0-4.2 3.4-7.7 7.7-7.7 4.2 0 7.7 3.5 7.7 7.7 0 4.3-3.5 7.7-7.7 7.7v2.8c5.8 0 10.5-4.7 10.5-10.5z"/></svg>